<mxfile>
    <diagram id="qajqCv2ngGzNVGj3OD6F" name="Page-1">
        <mxGraphModel dx="948" dy="545" grid="1" gridSize="10" guides="1" tooltips="1" connect="1" arrows="1" fold="1" page="1" pageScale="1" pageWidth="827" pageHeight="1169" background="#F1FAEE" math="0" shadow="0">
            <root>
                <mxCell id="0"/>
                <mxCell id="1" parent="0"/>
                <mxCell id="44" value="" style="group" vertex="1" connectable="0" parent="1">
                    <mxGeometry x="460" y="410" width="180" height="30" as="geometry"/>
                </mxCell>
                <mxCell id="45" value="" style="endArrow=classic;html=1;fontColor=#1D3557;strokeColor=#000000;jumpSize=24;endSize=11;startSize=7;strokeWidth=3;" edge="1" parent="44">
                    <mxGeometry width="50" height="50" relative="1" as="geometry">
                        <mxPoint x="180" y="30" as="sourcePoint"/>
                        <mxPoint y="30" as="targetPoint"/>
                    </mxGeometry>
                </mxCell>
                <mxCell id="46" value="&lt;font style=&quot;font-size: 20px&quot;&gt;dac_data_i1&lt;/font&gt;" style="text;html=1;align=center;verticalAlign=middle;resizable=0;points=[];autosize=1;fontColor=#1D3557;strokeWidth=4;" vertex="1" parent="44">
                    <mxGeometry x="30" y="5" width="120" height="20" as="geometry"/>
                </mxCell>
                <mxCell id="47" value="" style="group" vertex="1" connectable="0" parent="1">
                    <mxGeometry x="460" y="441" width="180" height="30" as="geometry"/>
                </mxCell>
                <mxCell id="48" value="" style="endArrow=classic;html=1;fontColor=#1D3557;strokeColor=#000000;jumpSize=24;endSize=11;startSize=7;strokeWidth=3;" edge="1" parent="47">
                    <mxGeometry width="50" height="50" relative="1" as="geometry">
                        <mxPoint x="180" y="30" as="sourcePoint"/>
                        <mxPoint y="30" as="targetPoint"/>
                    </mxGeometry>
                </mxCell>
                <mxCell id="49" value="&lt;font style=&quot;font-size: 20px&quot;&gt;dac_data_q1&lt;/font&gt;" style="text;html=1;align=center;verticalAlign=middle;resizable=0;points=[];autosize=1;fontColor=#1D3557;strokeWidth=4;" vertex="1" parent="47">
                    <mxGeometry x="25" y="5" width="130" height="20" as="geometry"/>
                </mxCell>
                <mxCell id="53" value="" style="group" vertex="1" connectable="0" parent="1">
                    <mxGeometry x="460" y="500" width="180" height="30" as="geometry"/>
                </mxCell>
                <mxCell id="54" value="" style="endArrow=classic;html=1;fontColor=#1D3557;strokeColor=#000000;jumpSize=24;endSize=11;startSize=7;" edge="1" parent="53">
                    <mxGeometry width="50" height="50" relative="1" as="geometry">
                        <mxPoint x="180" y="30" as="sourcePoint"/>
                        <mxPoint y="30" as="targetPoint"/>
                    </mxGeometry>
                </mxCell>
                <mxCell id="55" value="&lt;font style=&quot;font-size: 20px&quot;&gt;rx_status&lt;/font&gt;" style="text;html=1;align=center;verticalAlign=middle;resizable=0;points=[];autosize=1;fontColor=#1D3557;strokeWidth=4;" vertex="1" parent="53">
                    <mxGeometry x="40" y="5" width="100" height="20" as="geometry"/>
                </mxCell>
                <mxCell id="50" value="" style="group" vertex="1" connectable="0" parent="53">
                    <mxGeometry y="-25" width="180" height="30" as="geometry"/>
                </mxCell>
                <mxCell id="51" value="" style="endArrow=classic;html=1;fontColor=#1D3557;strokeColor=#000000;jumpSize=24;endSize=11;startSize=7;strokeWidth=1;" edge="1" parent="50">
                    <mxGeometry width="50" height="50" relative="1" as="geometry">
                        <mxPoint x="180" y="30" as="sourcePoint"/>
                        <mxPoint y="30" as="targetPoint"/>
                    </mxGeometry>
                </mxCell>
                <mxCell id="52" value="&lt;font style=&quot;font-size: 20px&quot;&gt;dac_valid&lt;/font&gt;" style="text;html=1;align=center;verticalAlign=middle;resizable=0;points=[];autosize=1;fontColor=#1D3557;strokeWidth=4;" vertex="1" parent="50">
                    <mxGeometry x="40" y="5" width="100" height="20" as="geometry"/>
                </mxCell>
                <mxCell id="2" value="&lt;font style=&quot;font-size: 24px&quot;&gt;ad936x_lvds_if&lt;/font&gt;" style="whiteSpace=wrap;html=1;rounded=0;sketch=0;strokeColor=#457B9D;fillColor=#A8DADC;fontColor=#1D3557;" vertex="1" parent="1">
                    <mxGeometry x="240" y="170" width="220" height="620" as="geometry"/>
                </mxCell>
                <mxCell id="8" value="" style="group" vertex="1" connectable="0" parent="1">
                    <mxGeometry x="60" y="275" width="180" height="30" as="geometry"/>
                </mxCell>
                <mxCell id="9" value="" style="endArrow=classic;html=1;fontColor=#1D3557;strokeColor=#000000;jumpSize=24;endSize=11;startSize=7;" edge="1" parent="8">
                    <mxGeometry width="50" height="50" relative="1" as="geometry">
                        <mxPoint y="30" as="sourcePoint"/>
                        <mxPoint x="180" y="30" as="targetPoint"/>
                    </mxGeometry>
                </mxCell>
                <mxCell id="10" value="&lt;font style=&quot;font-size: 20px&quot;&gt;rx_clk_in_n&lt;/font&gt;" style="text;html=1;align=center;verticalAlign=middle;resizable=0;points=[];autosize=1;fontColor=#1D3557;strokeWidth=4;" vertex="1" parent="8">
                    <mxGeometry x="30" y="5" width="120" height="20" as="geometry"/>
                </mxCell>
                <mxCell id="7" value="" style="group" vertex="1" connectable="0" parent="8">
                    <mxGeometry y="-35.56999999999999" width="180" height="30" as="geometry"/>
                </mxCell>
                <mxCell id="5" value="" style="endArrow=classic;html=1;fontColor=#1D3557;strokeColor=#000000;jumpSize=24;endSize=11;startSize=7;" edge="1" parent="7">
                    <mxGeometry width="50" height="50" relative="1" as="geometry">
                        <mxPoint y="40" as="sourcePoint"/>
                        <mxPoint x="180" y="40" as="targetPoint"/>
                    </mxGeometry>
                </mxCell>
                <mxCell id="11" value="" style="group" vertex="1" connectable="0" parent="1">
                    <mxGeometry x="60" y="305" width="180" height="30" as="geometry"/>
                </mxCell>
                <mxCell id="12" value="" style="endArrow=classic;html=1;fontColor=#1D3557;strokeColor=#000000;jumpSize=24;endSize=11;startSize=7;" edge="1" parent="11">
                    <mxGeometry width="50" height="50" relative="1" as="geometry">
                        <mxPoint y="25" as="sourcePoint"/>
                        <mxPoint x="180" y="25" as="targetPoint"/>
                    </mxGeometry>
                </mxCell>
                <mxCell id="13" value="&lt;font style=&quot;font-size: 20px&quot;&gt;rx_frame_in_p&lt;/font&gt;" style="text;html=1;align=center;verticalAlign=middle;resizable=0;points=[];autosize=1;fontColor=#1D3557;strokeWidth=4;" vertex="1" parent="11">
                    <mxGeometry x="20" width="140" height="20" as="geometry"/>
                </mxCell>
                <mxCell id="14" value="" style="group" vertex="1" connectable="0" parent="1">
                    <mxGeometry x="60" y="340" width="180" height="30" as="geometry"/>
                </mxCell>
                <mxCell id="15" value="" style="endArrow=classic;html=1;fontColor=#1D3557;strokeColor=#000000;jumpSize=24;endSize=11;startSize=7;" edge="1" parent="14">
                    <mxGeometry width="50" height="50" relative="1" as="geometry">
                        <mxPoint y="20" as="sourcePoint"/>
                        <mxPoint x="180" y="20" as="targetPoint"/>
                    </mxGeometry>
                </mxCell>
                <mxCell id="16" value="&lt;font style=&quot;font-size: 20px&quot;&gt;rx_frame_in_n&lt;/font&gt;" style="text;html=1;align=center;verticalAlign=middle;resizable=0;points=[];autosize=1;fontColor=#1D3557;strokeWidth=4;" vertex="1" parent="14">
                    <mxGeometry x="20" y="-5" width="140" height="20" as="geometry"/>
                </mxCell>
                <mxCell id="19" value="" style="group;strokeWidth=7;" vertex="1" connectable="0" parent="1">
                    <mxGeometry x="60" y="364" width="180" height="30" as="geometry"/>
                </mxCell>
                <mxCell id="20" value="" style="endArrow=classic;html=1;fontColor=#1D3557;strokeColor=#000000;jumpSize=24;endSize=11;startSize=7;strokeWidth=3;" edge="1" parent="19">
                    <mxGeometry width="50" height="50" relative="1" as="geometry">
                        <mxPoint y="30" as="sourcePoint"/>
                        <mxPoint x="180" y="30" as="targetPoint"/>
                    </mxGeometry>
                </mxCell>
                <mxCell id="21" value="&lt;font style=&quot;font-size: 20px&quot;&gt;rx_data_in_p&lt;/font&gt;" style="text;html=1;align=center;verticalAlign=middle;resizable=0;points=[];autosize=1;fontColor=#1D3557;strokeWidth=4;" vertex="1" parent="19">
                    <mxGeometry x="25" y="5" width="130" height="20" as="geometry"/>
                </mxCell>
                <mxCell id="22" value="" style="group;strokeWidth=7;" vertex="1" connectable="0" parent="1">
                    <mxGeometry x="60" y="404" width="180" height="30" as="geometry"/>
                </mxCell>
                <mxCell id="23" value="" style="endArrow=classic;html=1;fontColor=#1D3557;strokeColor=#000000;jumpSize=24;endSize=11;startSize=7;strokeWidth=3;" edge="1" parent="22">
                    <mxGeometry width="50" height="50" relative="1" as="geometry">
                        <mxPoint y="30" as="sourcePoint"/>
                        <mxPoint x="180" y="30" as="targetPoint"/>
                    </mxGeometry>
                </mxCell>
                <mxCell id="24" value="&lt;font style=&quot;font-size: 20px&quot;&gt;rx_data_in_n&lt;/font&gt;" style="text;html=1;align=center;verticalAlign=middle;resizable=0;points=[];autosize=1;fontColor=#1D3557;strokeWidth=4;" vertex="1" parent="22">
                    <mxGeometry x="25" y="5" width="130" height="20" as="geometry"/>
                </mxCell>
                <mxCell id="26" value="" style="group" vertex="1" connectable="0" parent="1">
                    <mxGeometry x="460" y="230" width="180" height="30" as="geometry"/>
                </mxCell>
                <mxCell id="27" value="" style="endArrow=classic;html=1;fontColor=#1D3557;strokeColor=#000000;jumpSize=24;endSize=11;startSize=7;strokeWidth=3;" edge="1" parent="26">
                    <mxGeometry width="50" height="50" relative="1" as="geometry">
                        <mxPoint y="30" as="sourcePoint"/>
                        <mxPoint x="180" y="30" as="targetPoint"/>
                    </mxGeometry>
                </mxCell>
                <mxCell id="28" value="&lt;font style=&quot;font-size: 20px&quot;&gt;adc_data_i1&lt;/font&gt;" style="text;html=1;align=center;verticalAlign=middle;resizable=0;points=[];autosize=1;fontColor=#1D3557;strokeWidth=4;" vertex="1" parent="26">
                    <mxGeometry x="30" y="5" width="120" height="20" as="geometry"/>
                </mxCell>
                <mxCell id="29" value="" style="group" vertex="1" connectable="0" parent="1">
                    <mxGeometry x="460" y="260" width="180" height="30" as="geometry"/>
                </mxCell>
                <mxCell id="30" value="" style="endArrow=classic;html=1;fontColor=#1D3557;strokeColor=#000000;jumpSize=24;endSize=11;startSize=7;strokeWidth=3;" edge="1" parent="29">
                    <mxGeometry width="50" height="50" relative="1" as="geometry">
                        <mxPoint y="30" as="sourcePoint"/>
                        <mxPoint x="180" y="30" as="targetPoint"/>
                    </mxGeometry>
                </mxCell>
                <mxCell id="31" value="&lt;font style=&quot;font-size: 20px&quot;&gt;adc_data_q1&lt;/font&gt;" style="text;html=1;align=center;verticalAlign=middle;resizable=0;points=[];autosize=1;fontColor=#1D3557;strokeWidth=4;" vertex="1" parent="29">
                    <mxGeometry x="25" y="5" width="130" height="20" as="geometry"/>
                </mxCell>
                <mxCell id="38" value="" style="group" vertex="1" connectable="0" parent="1">
                    <mxGeometry x="460" y="290" width="180" height="30" as="geometry"/>
                </mxCell>
                <mxCell id="39" value="" style="endArrow=classic;html=1;fontColor=#1D3557;strokeColor=#000000;jumpSize=24;endSize=11;startSize=7;" edge="1" parent="38">
                    <mxGeometry width="50" height="50" relative="1" as="geometry">
                        <mxPoint y="30" as="sourcePoint"/>
                        <mxPoint x="180" y="30" as="targetPoint"/>
                    </mxGeometry>
                </mxCell>
                <mxCell id="40" value="&lt;font style=&quot;font-size: 20px&quot;&gt;adc_valid&lt;/font&gt;" style="text;html=1;align=center;verticalAlign=middle;resizable=0;points=[];autosize=1;fontColor=#1D3557;strokeWidth=4;" vertex="1" parent="38">
                    <mxGeometry x="40" y="5" width="100" height="20" as="geometry"/>
                </mxCell>
                <mxCell id="41" value="" style="group" vertex="1" connectable="0" parent="1">
                    <mxGeometry x="460" y="320" width="180" height="30" as="geometry"/>
                </mxCell>
                <mxCell id="42" value="" style="endArrow=classic;html=1;fontColor=#1D3557;strokeColor=#000000;jumpSize=24;endSize=11;startSize=7;" edge="1" parent="41">
                    <mxGeometry width="50" height="50" relative="1" as="geometry">
                        <mxPoint y="30" as="sourcePoint"/>
                        <mxPoint x="180" y="30" as="targetPoint"/>
                    </mxGeometry>
                </mxCell>
                <mxCell id="43" value="&lt;font style=&quot;font-size: 20px&quot;&gt;rx_status&lt;/font&gt;" style="text;html=1;align=center;verticalAlign=middle;resizable=0;points=[];autosize=1;fontColor=#1D3557;strokeWidth=4;" vertex="1" parent="41">
                    <mxGeometry x="40" y="5" width="100" height="20" as="geometry"/>
                </mxCell>
                <mxCell id="56" value="" style="group" vertex="1" connectable="0" parent="1">
                    <mxGeometry x="460" y="525" width="180" height="30" as="geometry"/>
                </mxCell>
                <mxCell id="57" value="" style="endArrow=classic;html=1;fontColor=#1D3557;strokeColor=#000000;jumpSize=24;endSize=11;startSize=7;" edge="1" parent="56">
                    <mxGeometry width="50" height="50" relative="1" as="geometry">
                        <mxPoint x="180" y="30" as="sourcePoint"/>
                        <mxPoint y="30" as="targetPoint"/>
                    </mxGeometry>
                </mxCell>
                <mxCell id="58" value="&lt;font style=&quot;font-size: 20px&quot;&gt;fb_clk&lt;/font&gt;" style="text;html=1;align=center;verticalAlign=middle;resizable=0;points=[];autosize=1;fontColor=#1D3557;strokeWidth=4;" vertex="1" parent="56">
                    <mxGeometry x="55" y="5" width="70" height="20" as="geometry"/>
                </mxCell>
                <mxCell id="59" value="" style="group" vertex="1" connectable="0" parent="1">
                    <mxGeometry x="460" y="369" width="180" height="30" as="geometry"/>
                </mxCell>
                <mxCell id="60" value="" style="endArrow=classic;html=1;fontColor=#1D3557;strokeColor=#000000;jumpSize=24;endSize=11;startSize=7;" edge="1" parent="59">
                    <mxGeometry width="50" height="50" relative="1" as="geometry">
                        <mxPoint y="30" as="sourcePoint"/>
                        <mxPoint x="180" y="30" as="targetPoint"/>
                    </mxGeometry>
                </mxCell>
                <mxCell id="61" value="&lt;font style=&quot;font-size: 20px&quot;&gt;user_clk&lt;/font&gt;" style="text;html=1;align=center;verticalAlign=middle;resizable=0;points=[];autosize=1;fontColor=#1D3557;strokeWidth=4;" vertex="1" parent="59">
                    <mxGeometry x="45" y="5" width="90" height="20" as="geometry"/>
                </mxCell>
                <mxCell id="6" value="&lt;font style=&quot;font-size: 20px&quot;&gt;rx_clk_in_p&lt;/font&gt;" style="text;html=1;align=center;verticalAlign=middle;resizable=0;points=[];autosize=1;fontColor=#1D3557;strokeWidth=4;" vertex="1" parent="1">
                    <mxGeometry x="90" y="255" width="120" height="20" as="geometry"/>
                </mxCell>
                <mxCell id="63" value="" style="group" vertex="1" connectable="0" parent="1">
                    <mxGeometry x="60" y="470.16" width="180" height="30" as="geometry"/>
                </mxCell>
                <mxCell id="64" value="" style="endArrow=classic;html=1;fontColor=#1D3557;strokeColor=#000000;jumpSize=24;endSize=11;startSize=7;strokeWidth=3;" edge="1" parent="63">
                    <mxGeometry width="50" height="50" relative="1" as="geometry">
                        <mxPoint x="180" y="30" as="sourcePoint"/>
                        <mxPoint y="30" as="targetPoint"/>
                    </mxGeometry>
                </mxCell>
                <mxCell id="65" value="&lt;font style=&quot;font-size: 20px&quot;&gt;tx_data_out_p&lt;/font&gt;" style="text;html=1;align=center;verticalAlign=middle;resizable=0;points=[];autosize=1;fontColor=#1D3557;strokeWidth=4;" vertex="1" parent="63">
                    <mxGeometry x="20" y="5" width="140" height="20" as="geometry"/>
                </mxCell>
                <mxCell id="66" value="" style="group" vertex="1" connectable="0" parent="1">
                    <mxGeometry x="60" y="501.16" width="180" height="30" as="geometry"/>
                </mxCell>
                <mxCell id="67" value="" style="endArrow=classic;html=1;fontColor=#1D3557;strokeColor=#000000;jumpSize=24;endSize=11;startSize=7;strokeWidth=3;" edge="1" parent="66">
                    <mxGeometry width="50" height="50" relative="1" as="geometry">
                        <mxPoint x="180" y="30" as="sourcePoint"/>
                        <mxPoint y="30" as="targetPoint"/>
                    </mxGeometry>
                </mxCell>
                <mxCell id="68" value="&lt;font style=&quot;font-size: 20px&quot;&gt;tx_data_out_n&lt;/font&gt;" style="text;html=1;align=center;verticalAlign=middle;resizable=0;points=[];autosize=1;fontColor=#1D3557;strokeWidth=4;" vertex="1" parent="66">
                    <mxGeometry x="20" y="5" width="140" height="20" as="geometry"/>
                </mxCell>
                <mxCell id="69" value="" style="group" vertex="1" connectable="0" parent="1">
                    <mxGeometry x="60" y="555" width="180" height="30" as="geometry"/>
                </mxCell>
                <mxCell id="70" value="" style="endArrow=classic;html=1;fontColor=#1D3557;strokeColor=#000000;jumpSize=24;endSize=11;startSize=7;" edge="1" parent="69">
                    <mxGeometry width="50" height="50" relative="1" as="geometry">
                        <mxPoint x="180" y="30" as="sourcePoint"/>
                        <mxPoint y="30" as="targetPoint"/>
                    </mxGeometry>
                </mxCell>
                <mxCell id="71" value="&lt;font style=&quot;font-size: 20px&quot;&gt;tx_frame_out_n&lt;/font&gt;" style="text;html=1;align=center;verticalAlign=middle;resizable=0;points=[];autosize=1;fontColor=#1D3557;strokeWidth=4;" vertex="1" parent="69">
                    <mxGeometry x="15" y="5" width="150" height="20" as="geometry"/>
                </mxCell>
                <mxCell id="72" value="" style="group" vertex="1" connectable="0" parent="69">
                    <mxGeometry y="-25" width="180" height="30" as="geometry"/>
                </mxCell>
                <mxCell id="73" value="" style="endArrow=classic;html=1;fontColor=#1D3557;strokeColor=#000000;jumpSize=24;endSize=11;startSize=7;strokeWidth=1;" edge="1" parent="72">
                    <mxGeometry width="50" height="50" relative="1" as="geometry">
                        <mxPoint x="180" y="30" as="sourcePoint"/>
                        <mxPoint y="30" as="targetPoint"/>
                    </mxGeometry>
                </mxCell>
                <mxCell id="74" value="&lt;font style=&quot;font-size: 20px&quot;&gt;tx_frame_out_p&lt;/font&gt;" style="text;html=1;align=center;verticalAlign=middle;resizable=0;points=[];autosize=1;fontColor=#1D3557;strokeWidth=4;" vertex="1" parent="72">
                    <mxGeometry x="15" y="5" width="150" height="20" as="geometry"/>
                </mxCell>
                <mxCell id="75" value="" style="group" vertex="1" connectable="0" parent="1">
                    <mxGeometry x="60" y="585" width="180" height="30" as="geometry"/>
                </mxCell>
                <mxCell id="76" value="" style="endArrow=classic;html=1;fontColor=#1D3557;strokeColor=#000000;jumpSize=24;endSize=11;startSize=7;" edge="1" parent="75">
                    <mxGeometry width="50" height="50" relative="1" as="geometry">
                        <mxPoint x="180" y="30" as="sourcePoint"/>
                        <mxPoint y="30" as="targetPoint"/>
                    </mxGeometry>
                </mxCell>
                <mxCell id="77" value="&lt;font style=&quot;font-size: 20px&quot;&gt;tx_clk_out_p&lt;/font&gt;" style="text;html=1;align=center;verticalAlign=middle;resizable=0;points=[];autosize=1;fontColor=#1D3557;strokeWidth=4;" vertex="1" parent="75">
                    <mxGeometry x="25" y="5" width="130" height="20" as="geometry"/>
                </mxCell>
                <mxCell id="78" value="" style="group" vertex="1" connectable="0" parent="1">
                    <mxGeometry x="60" y="615" width="180" height="30" as="geometry"/>
                </mxCell>
                <mxCell id="79" value="" style="endArrow=classic;html=1;fontColor=#1D3557;strokeColor=#000000;jumpSize=24;endSize=11;startSize=7;" edge="1" parent="78">
                    <mxGeometry width="50" height="50" relative="1" as="geometry">
                        <mxPoint x="180" y="30" as="sourcePoint"/>
                        <mxPoint y="30" as="targetPoint"/>
                    </mxGeometry>
                </mxCell>
                <mxCell id="80" value="&lt;font style=&quot;font-size: 20px&quot;&gt;tx_clk_out_n&lt;/font&gt;" style="text;html=1;align=center;verticalAlign=middle;resizable=0;points=[];autosize=1;fontColor=#1D3557;strokeWidth=4;" vertex="1" parent="78">
                    <mxGeometry x="25" y="5" width="130" height="20" as="geometry"/>
                </mxCell>
                <mxCell id="84" value="" style="group" vertex="1" connectable="0" parent="1">
                    <mxGeometry x="460" y="585" width="210" height="30" as="geometry"/>
                </mxCell>
                <mxCell id="85" value="" style="endArrow=classic;html=1;fontColor=#1D3557;strokeColor=#000000;jumpSize=24;endSize=11;startSize=7;strokeWidth=3;" edge="1" parent="84">
                    <mxGeometry width="50" height="50" relative="1" as="geometry">
                        <mxPoint x="210" y="30" as="sourcePoint"/>
                        <mxPoint y="30" as="targetPoint"/>
                    </mxGeometry>
                </mxCell>
                <mxCell id="86" value="&lt;font style=&quot;font-size: 20px&quot;&gt;rx_delay_value&lt;/font&gt;" style="text;html=1;align=center;verticalAlign=middle;resizable=0;points=[];autosize=1;fontColor=#1D3557;strokeWidth=4;" vertex="1" parent="84">
                    <mxGeometry x="41.996500000000005" y="5" width="150" height="20" as="geometry"/>
                </mxCell>
                <mxCell id="87" value="" style="group" vertex="1" connectable="0" parent="1">
                    <mxGeometry x="460" y="620" width="210" height="30" as="geometry"/>
                </mxCell>
                <mxCell id="88" value="" style="endArrow=classic;html=1;fontColor=#1D3557;strokeColor=#000000;jumpSize=24;endSize=11;startSize=7;strokeWidth=3;" edge="1" parent="87">
                    <mxGeometry width="50" height="50" relative="1" as="geometry">
                        <mxPoint x="210" y="30" as="sourcePoint"/>
                        <mxPoint y="30" as="targetPoint"/>
                    </mxGeometry>
                </mxCell>
                <mxCell id="89" value="&lt;font style=&quot;font-size: 20px&quot;&gt;rx_delay_load_en&lt;/font&gt;" style="text;html=1;align=center;verticalAlign=middle;resizable=0;points=[];autosize=1;fontColor=#1D3557;strokeWidth=4;" vertex="1" parent="87">
                    <mxGeometry x="30.003333333333337" y="5" width="170" height="20" as="geometry"/>
                </mxCell>
                <mxCell id="90" value="" style="group" vertex="1" connectable="0" parent="1">
                    <mxGeometry x="460" y="670" width="180" height="30" as="geometry"/>
                </mxCell>
                <mxCell id="91" value="" style="endArrow=classic;html=1;fontColor=#1D3557;strokeColor=#000000;jumpSize=24;endSize=11;startSize=7;" edge="1" parent="90">
                    <mxGeometry width="50" height="50" relative="1" as="geometry">
                        <mxPoint x="180" y="30" as="sourcePoint"/>
                        <mxPoint y="30" as="targetPoint"/>
                    </mxGeometry>
                </mxCell>
                <mxCell id="92" value="&lt;font style=&quot;font-size: 20px&quot;&gt;ref_clk&lt;/font&gt;" style="text;html=1;align=center;verticalAlign=middle;resizable=0;points=[];autosize=1;fontColor=#1D3557;strokeWidth=4;" vertex="1" parent="90">
                    <mxGeometry x="55" y="5" width="70" height="20" as="geometry"/>
                </mxCell>
                <mxCell id="93" value="" style="group" vertex="1" connectable="0" parent="1">
                    <mxGeometry x="460" y="710" width="180" height="30" as="geometry"/>
                </mxCell>
                <mxCell id="94" value="" style="endArrow=classic;html=1;fontColor=#1D3557;strokeColor=#000000;jumpSize=24;endSize=11;startSize=7;" edge="1" parent="93">
                    <mxGeometry width="50" height="50" relative="1" as="geometry">
                        <mxPoint x="180" y="30" as="sourcePoint"/>
                        <mxPoint y="30" as="targetPoint"/>
                    </mxGeometry>
                </mxCell>
                <mxCell id="95" value="&lt;font style=&quot;font-size: 20px&quot;&gt;rst&lt;/font&gt;" style="text;html=1;align=center;verticalAlign=middle;resizable=0;points=[];autosize=1;fontColor=#1D3557;strokeWidth=4;" vertex="1" parent="93">
                    <mxGeometry x="70" y="5" width="40" height="20" as="geometry"/>
                </mxCell>
                <mxCell id="108" value="&lt;font style=&quot;font-size: 24px&quot;&gt;ad936x_lvds_if_rx&lt;/font&gt;" style="whiteSpace=wrap;html=1;rounded=0;sketch=0;strokeColor=#457B9D;fillColor=#A8DADC;fontColor=#1D3557;" vertex="1" parent="1">
                    <mxGeometry x="270" y="1050" width="220" height="370" as="geometry"/>
                </mxCell>
                <mxCell id="109" value="" style="group" vertex="1" connectable="0" parent="1">
                    <mxGeometry x="90" y="1165.57" width="180" height="30" as="geometry"/>
                </mxCell>
                <mxCell id="110" value="" style="endArrow=classic;html=1;fontColor=#1D3557;strokeColor=#000000;jumpSize=24;endSize=11;startSize=7;" edge="1" parent="109">
                    <mxGeometry width="50" height="50" relative="1" as="geometry">
                        <mxPoint y="30" as="sourcePoint"/>
                        <mxPoint x="180" y="30" as="targetPoint"/>
                    </mxGeometry>
                </mxCell>
                <mxCell id="111" value="&lt;font style=&quot;font-size: 20px&quot;&gt;rx_clk_in_n&lt;/font&gt;" style="text;html=1;align=center;verticalAlign=middle;resizable=0;points=[];autosize=1;fontColor=#1D3557;strokeWidth=4;" vertex="1" parent="109">
                    <mxGeometry x="30" y="5" width="120" height="20" as="geometry"/>
                </mxCell>
                <mxCell id="112" value="" style="group" vertex="1" connectable="0" parent="109">
                    <mxGeometry y="-35.56999999999999" width="180" height="30" as="geometry"/>
                </mxCell>
                <mxCell id="113" value="" style="endArrow=classic;html=1;fontColor=#1D3557;strokeColor=#000000;jumpSize=24;endSize=11;startSize=7;" edge="1" parent="112">
                    <mxGeometry width="50" height="50" relative="1" as="geometry">
                        <mxPoint y="40" as="sourcePoint"/>
                        <mxPoint x="180" y="40" as="targetPoint"/>
                    </mxGeometry>
                </mxCell>
                <mxCell id="114" value="" style="group" vertex="1" connectable="0" parent="1">
                    <mxGeometry x="90" y="1195.57" width="180" height="30" as="geometry"/>
                </mxCell>
                <mxCell id="115" value="" style="endArrow=classic;html=1;fontColor=#1D3557;strokeColor=#000000;jumpSize=24;endSize=11;startSize=7;" edge="1" parent="114">
                    <mxGeometry width="50" height="50" relative="1" as="geometry">
                        <mxPoint y="25" as="sourcePoint"/>
                        <mxPoint x="180" y="25" as="targetPoint"/>
                    </mxGeometry>
                </mxCell>
                <mxCell id="116" value="&lt;font style=&quot;font-size: 20px&quot;&gt;rx_frame_in_p&lt;/font&gt;" style="text;html=1;align=center;verticalAlign=middle;resizable=0;points=[];autosize=1;fontColor=#1D3557;strokeWidth=4;" vertex="1" parent="114">
                    <mxGeometry x="20" width="140" height="20" as="geometry"/>
                </mxCell>
                <mxCell id="117" value="" style="group" vertex="1" connectable="0" parent="1">
                    <mxGeometry x="90" y="1230.57" width="180" height="30" as="geometry"/>
                </mxCell>
                <mxCell id="118" value="" style="endArrow=classic;html=1;fontColor=#1D3557;strokeColor=#000000;jumpSize=24;endSize=11;startSize=7;" edge="1" parent="117">
                    <mxGeometry width="50" height="50" relative="1" as="geometry">
                        <mxPoint y="20" as="sourcePoint"/>
                        <mxPoint x="180" y="20" as="targetPoint"/>
                    </mxGeometry>
                </mxCell>
                <mxCell id="119" value="&lt;font style=&quot;font-size: 20px&quot;&gt;rx_frame_in_n&lt;/font&gt;" style="text;html=1;align=center;verticalAlign=middle;resizable=0;points=[];autosize=1;fontColor=#1D3557;strokeWidth=4;" vertex="1" parent="117">
                    <mxGeometry x="20" y="-5" width="140" height="20" as="geometry"/>
                </mxCell>
                <mxCell id="120" value="" style="group;strokeWidth=7;" vertex="1" connectable="0" parent="1">
                    <mxGeometry x="90" y="1254.57" width="180" height="30" as="geometry"/>
                </mxCell>
                <mxCell id="121" value="" style="endArrow=classic;html=1;fontColor=#1D3557;strokeColor=#000000;jumpSize=24;endSize=11;startSize=7;strokeWidth=3;" edge="1" parent="120">
                    <mxGeometry width="50" height="50" relative="1" as="geometry">
                        <mxPoint y="30" as="sourcePoint"/>
                        <mxPoint x="180" y="30" as="targetPoint"/>
                    </mxGeometry>
                </mxCell>
                <mxCell id="122" value="&lt;font style=&quot;font-size: 20px&quot;&gt;rx_data_in_p&lt;/font&gt;" style="text;html=1;align=center;verticalAlign=middle;resizable=0;points=[];autosize=1;fontColor=#1D3557;strokeWidth=4;" vertex="1" parent="120">
                    <mxGeometry x="25" y="5" width="130" height="20" as="geometry"/>
                </mxCell>
                <mxCell id="123" value="" style="group;strokeWidth=7;" vertex="1" connectable="0" parent="1">
                    <mxGeometry x="90" y="1294.57" width="180" height="30" as="geometry"/>
                </mxCell>
                <mxCell id="124" value="" style="endArrow=classic;html=1;fontColor=#1D3557;strokeColor=#000000;jumpSize=24;endSize=11;startSize=7;strokeWidth=3;" edge="1" parent="123">
                    <mxGeometry width="50" height="50" relative="1" as="geometry">
                        <mxPoint y="30" as="sourcePoint"/>
                        <mxPoint x="180" y="30" as="targetPoint"/>
                    </mxGeometry>
                </mxCell>
                <mxCell id="125" value="&lt;font style=&quot;font-size: 20px&quot;&gt;rx_data_in_n&lt;/font&gt;" style="text;html=1;align=center;verticalAlign=middle;resizable=0;points=[];autosize=1;fontColor=#1D3557;strokeWidth=4;" vertex="1" parent="123">
                    <mxGeometry x="25" y="5" width="130" height="20" as="geometry"/>
                </mxCell>
                <mxCell id="126" value="" style="group" vertex="1" connectable="0" parent="1">
                    <mxGeometry x="490" y="1070" width="180" height="30" as="geometry"/>
                </mxCell>
                <mxCell id="127" value="" style="endArrow=classic;html=1;fontColor=#1D3557;strokeColor=#000000;jumpSize=24;endSize=11;startSize=7;strokeWidth=3;" edge="1" parent="126">
                    <mxGeometry width="50" height="50" relative="1" as="geometry">
                        <mxPoint y="30" as="sourcePoint"/>
                        <mxPoint x="180" y="30" as="targetPoint"/>
                    </mxGeometry>
                </mxCell>
                <mxCell id="128" value="&lt;font style=&quot;font-size: 20px&quot;&gt;adc_data_i1&lt;/font&gt;" style="text;html=1;align=center;verticalAlign=middle;resizable=0;points=[];autosize=1;fontColor=#1D3557;strokeWidth=4;" vertex="1" parent="126">
                    <mxGeometry x="30" y="5" width="120" height="20" as="geometry"/>
                </mxCell>
                <mxCell id="129" value="" style="group" vertex="1" connectable="0" parent="1">
                    <mxGeometry x="490" y="1100" width="180" height="30" as="geometry"/>
                </mxCell>
                <mxCell id="130" value="" style="endArrow=classic;html=1;fontColor=#1D3557;strokeColor=#000000;jumpSize=24;endSize=11;startSize=7;strokeWidth=3;" edge="1" parent="129">
                    <mxGeometry width="50" height="50" relative="1" as="geometry">
                        <mxPoint y="30" as="sourcePoint"/>
                        <mxPoint x="180" y="30" as="targetPoint"/>
                    </mxGeometry>
                </mxCell>
                <mxCell id="131" value="&lt;font style=&quot;font-size: 20px&quot;&gt;adc_data_q1&lt;/font&gt;" style="text;html=1;align=center;verticalAlign=middle;resizable=0;points=[];autosize=1;fontColor=#1D3557;strokeWidth=4;" vertex="1" parent="129">
                    <mxGeometry x="25" y="5" width="130" height="20" as="geometry"/>
                </mxCell>
                <mxCell id="132" value="" style="group" vertex="1" connectable="0" parent="1">
                    <mxGeometry x="490" y="1130" width="180" height="30" as="geometry"/>
                </mxCell>
                <mxCell id="133" value="" style="endArrow=classic;html=1;fontColor=#1D3557;strokeColor=#000000;jumpSize=24;endSize=11;startSize=7;" edge="1" parent="132">
                    <mxGeometry width="50" height="50" relative="1" as="geometry">
                        <mxPoint y="30" as="sourcePoint"/>
                        <mxPoint x="180" y="30" as="targetPoint"/>
                    </mxGeometry>
                </mxCell>
                <mxCell id="134" value="&lt;font style=&quot;font-size: 20px&quot;&gt;adc_valid&lt;/font&gt;" style="text;html=1;align=center;verticalAlign=middle;resizable=0;points=[];autosize=1;fontColor=#1D3557;strokeWidth=4;" vertex="1" parent="132">
                    <mxGeometry x="40" y="5" width="100" height="20" as="geometry"/>
                </mxCell>
                <mxCell id="135" value="" style="group" vertex="1" connectable="0" parent="1">
                    <mxGeometry x="490" y="1160" width="180" height="30" as="geometry"/>
                </mxCell>
                <mxCell id="136" value="" style="endArrow=classic;html=1;fontColor=#1D3557;strokeColor=#000000;jumpSize=24;endSize=11;startSize=7;" edge="1" parent="135">
                    <mxGeometry width="50" height="50" relative="1" as="geometry">
                        <mxPoint y="30" as="sourcePoint"/>
                        <mxPoint x="180" y="30" as="targetPoint"/>
                    </mxGeometry>
                </mxCell>
                <mxCell id="137" value="&lt;font style=&quot;font-size: 20px&quot;&gt;rx_status&lt;/font&gt;" style="text;html=1;align=center;verticalAlign=middle;resizable=0;points=[];autosize=1;fontColor=#1D3557;strokeWidth=4;" vertex="1" parent="135">
                    <mxGeometry x="40" y="5" width="100" height="20" as="geometry"/>
                </mxCell>
                <mxCell id="141" value="" style="group" vertex="1" connectable="0" parent="1">
                    <mxGeometry x="490" y="1190" width="180" height="30" as="geometry"/>
                </mxCell>
                <mxCell id="142" value="" style="endArrow=classic;html=1;fontColor=#1D3557;strokeColor=#000000;jumpSize=24;endSize=11;startSize=7;" edge="1" parent="141">
                    <mxGeometry width="50" height="50" relative="1" as="geometry">
                        <mxPoint y="30" as="sourcePoint"/>
                        <mxPoint x="180" y="30" as="targetPoint"/>
                    </mxGeometry>
                </mxCell>
                <mxCell id="143" value="&lt;font style=&quot;font-size: 20px&quot;&gt;user_clk&lt;/font&gt;" style="text;html=1;align=center;verticalAlign=middle;resizable=0;points=[];autosize=1;fontColor=#1D3557;strokeWidth=4;" vertex="1" parent="141">
                    <mxGeometry x="45" y="5" width="90" height="20" as="geometry"/>
                </mxCell>
                <mxCell id="144" value="&lt;font style=&quot;font-size: 20px&quot;&gt;rx_clk_in_p&lt;/font&gt;" style="text;html=1;align=center;verticalAlign=middle;resizable=0;points=[];autosize=1;fontColor=#1D3557;strokeWidth=4;" vertex="1" parent="1">
                    <mxGeometry x="120" y="1145.57" width="120" height="20" as="geometry"/>
                </mxCell>
                <mxCell id="163" value="" style="group" vertex="1" connectable="0" parent="1">
                    <mxGeometry x="490" y="1240" width="210" height="30" as="geometry"/>
                </mxCell>
                <mxCell id="164" value="" style="endArrow=classic;html=1;fontColor=#1D3557;strokeColor=#000000;jumpSize=24;endSize=11;startSize=7;strokeWidth=3;" edge="1" parent="163">
                    <mxGeometry width="50" height="50" relative="1" as="geometry">
                        <mxPoint x="210" y="30" as="sourcePoint"/>
                        <mxPoint y="30" as="targetPoint"/>
                    </mxGeometry>
                </mxCell>
                <mxCell id="165" value="&lt;font style=&quot;font-size: 20px&quot;&gt;rx_delay_value&lt;/font&gt;" style="text;html=1;align=center;verticalAlign=middle;resizable=0;points=[];autosize=1;fontColor=#1D3557;strokeWidth=4;" vertex="1" parent="163">
                    <mxGeometry x="41.996500000000005" y="5" width="150" height="20" as="geometry"/>
                </mxCell>
                <mxCell id="166" value="" style="group" vertex="1" connectable="0" parent="1">
                    <mxGeometry x="490" y="1275" width="210" height="30" as="geometry"/>
                </mxCell>
                <mxCell id="167" value="" style="endArrow=classic;html=1;fontColor=#1D3557;strokeColor=#000000;jumpSize=24;endSize=11;startSize=7;strokeWidth=3;" edge="1" parent="166">
                    <mxGeometry width="50" height="50" relative="1" as="geometry">
                        <mxPoint x="210" y="30" as="sourcePoint"/>
                        <mxPoint y="30" as="targetPoint"/>
                    </mxGeometry>
                </mxCell>
                <mxCell id="168" value="&lt;font style=&quot;font-size: 20px&quot;&gt;rx_delay_load_en&lt;/font&gt;" style="text;html=1;align=center;verticalAlign=middle;resizable=0;points=[];autosize=1;fontColor=#1D3557;strokeWidth=4;" vertex="1" parent="166">
                    <mxGeometry x="30.003333333333337" y="5" width="170" height="20" as="geometry"/>
                </mxCell>
                <mxCell id="169" value="" style="group" vertex="1" connectable="0" parent="1">
                    <mxGeometry x="490" y="1310" width="180" height="30" as="geometry"/>
                </mxCell>
                <mxCell id="170" value="" style="endArrow=classic;html=1;fontColor=#1D3557;strokeColor=#000000;jumpSize=24;endSize=11;startSize=7;" edge="1" parent="169">
                    <mxGeometry width="50" height="50" relative="1" as="geometry">
                        <mxPoint x="180" y="30" as="sourcePoint"/>
                        <mxPoint y="30" as="targetPoint"/>
                    </mxGeometry>
                </mxCell>
                <mxCell id="171" value="&lt;font style=&quot;font-size: 20px&quot;&gt;ref_clk&lt;/font&gt;" style="text;html=1;align=center;verticalAlign=middle;resizable=0;points=[];autosize=1;fontColor=#1D3557;strokeWidth=4;" vertex="1" parent="169">
                    <mxGeometry x="55" y="5" width="70" height="20" as="geometry"/>
                </mxCell>
                <mxCell id="172" value="" style="group" vertex="1" connectable="0" parent="1">
                    <mxGeometry x="490" y="1340" width="180" height="30" as="geometry"/>
                </mxCell>
                <mxCell id="173" value="" style="endArrow=classic;html=1;fontColor=#1D3557;strokeColor=#000000;jumpSize=24;endSize=11;startSize=7;" edge="1" parent="172">
                    <mxGeometry width="50" height="50" relative="1" as="geometry">
                        <mxPoint x="180" y="30" as="sourcePoint"/>
                        <mxPoint y="30" as="targetPoint"/>
                    </mxGeometry>
                </mxCell>
                <mxCell id="174" value="&lt;font style=&quot;font-size: 20px&quot;&gt;rst&lt;/font&gt;" style="text;html=1;align=center;verticalAlign=middle;resizable=0;points=[];autosize=1;fontColor=#1D3557;strokeWidth=4;" vertex="1" parent="172">
                    <mxGeometry x="70" y="5" width="40" height="20" as="geometry"/>
                </mxCell>
            </root>
        </mxGraphModel>
    </diagram>
</mxfile>